<svg width="179" height="32" viewBox="0 0 179 32" fill="none" xmlns="http://www.w3.org/2000/svg">
<g clip-path="url(#clip0_2154_5774)">
<g clip-path="url(#clip1_2154_5774)">
<path d="M68.506 10.4764H64.2983V21.505H65.9555V17.4403H68.506C71.2313 17.4403 72.5357 16.0705 72.5357 13.9727C72.5357 11.875 71.2281 10.4764 68.506 10.4764ZM68.4413 16.0067H65.9555V11.9101H68.4413C70.0499 11.9101 70.8462 12.6668 70.8462 13.9727C70.8462 15.2787 70.0499 16.0067 68.4413 16.0067ZM51.1508 15.2978L49.717 15.0136C48.3932 14.7454 47.9174 14.1484 47.9174 13.3757C47.9174 12.4625 48.555 11.7217 50.1636 11.7217C51.7723 11.7217 52.507 12.3826 52.5232 13.4235H54.2127C54.2127 11.4854 52.7142 10.3359 50.196 10.3359C47.6778 10.3359 46.1954 11.4694 46.1954 13.3757C46.1954 15.0775 47.3898 15.9588 49.2865 16.3387L50.7851 16.6389C52.0118 16.8752 52.7918 17.3317 52.7918 18.4206C52.7918 19.5094 51.9309 20.2789 50.2737 20.2789C48.4255 20.2789 47.6293 19.3497 47.5646 18.1683H45.875C45.875 20.2948 47.4351 21.6646 50.2575 21.6646C52.8242 21.6646 54.5267 20.5471 54.5267 18.4046C54.5267 16.6389 53.3809 15.7416 51.1476 15.301L51.1508 15.2978ZM83.6344 16.5271H88.7484V15.2212H83.6344V11.9133H89.2274V10.4796H81.9772V21.5082H89.386V20.0745H83.6344V16.5303V16.5271ZM156.395 10.4764L152.204 21.505H153.942L157.383 12.1942H157.48L160.92 21.505H162.658L158.467 10.4764H156.395ZM103.446 11.7536C104.88 11.7536 105.948 12.4625 106.298 13.8961H107.923C107.605 11.4854 105.803 10.3359 103.492 10.3359C100.433 10.3359 98.3775 12.3379 98.3775 15.9907C98.3775 19.6435 100.433 21.6614 103.475 21.6614C105.803 21.6614 107.602 20.5119 107.919 18.0853H106.295C105.945 19.5349 104.877 20.2437 103.443 20.2437C101.291 20.2437 100.048 18.6377 100.048 15.9907C100.048 13.3437 101.307 11.7536 103.443 11.7536H103.446ZM173.676 20.0713V10.4764H172.019V21.505H179.204V20.0713H173.676ZM142.944 13.9727C142.944 11.8462 141.636 10.4764 138.914 10.4764H134.706V21.505H136.363V17.4403H138.975L141.38 21.505H143.038L140.487 17.236C142.144 16.8113 142.94 15.598 142.94 13.9759L142.944 13.9727ZM138.849 16.0067H136.363V11.9101H138.849C140.458 11.9101 141.254 12.6668 141.254 13.9727C141.254 15.2787 140.458 16.0067 138.849 16.0067ZM116.804 11.942H120.229V21.505H121.886V11.942H125.31V10.4764H116.801V11.942H116.804Z" fill="#F7FAFC"/>
<path d="M21.4278 21.0171L14.375 10.3047V24.6156L21.4278 21.0171Z" fill="#F7FAFC"/>
<path d="M21.8024 21.3897L14.3742 25.1926V24.6242L7.82958 21.0194L14.3742 10.3101V9.33626L7.302 20.9108L0.9613 23.3502L14.3742 1.39214V9.33307L21.9578 20.9076L29.0785 23.644L14.6299 0L0 23.9409L14.6299 32L28.9232 24.1261L21.8024 21.3897ZM14.3742 31.2848L0.95159 23.8898L7.45412 21.3897L14.371 25.2022V31.2848H14.3742Z" fill="#F7FAFC"/>
</g>
</g>
<defs>
<clipPath id="clip0_2154_5774">
<rect width="179" height="32" fill="white"/>
</clipPath>
<clipPath id="clip1_2154_5774">
<rect width="179" height="32" fill="white"/>
</clipPath>
</defs>
</svg>
